<svg width="157" height="32" viewBox="0 0 157 32" fill="none" xmlns="http://www.w3.org/2000/svg">
<path d="M10.6774 22.9984V0L0.640869 16.9675L10.6774 22.9984Z" fill="#C8C8C8" fill-opacity="0.4"/>
<path d="M10.677 0L20.7135 16.9675L10.677 22.9534V0Z" fill="#C8C8C8" fill-opacity="0.8"/>
<path d="M0.640869 18.2715L10.6774 24.2574V31.9985" fill="#C8C8C8" fill-opacity="0.4"/>
<path d="M20.7135 18.2715L10.677 24.2574V31.9985" fill="#C8C8C8" fill-opacity="0.6"/>
<path d="M10.6772 10.9814L0.640686 16.9673L10.6772 22.9532V10.9814Z" fill="#C8C8C8" fill-opacity="0.4"/>
<path d="M10.6772 10.9814L20.7137 16.9673L10.6772 22.9532V10.9814Z" fill="#C8C8C8" fill-opacity="0.6"/>
<path d="M34.0759 23.252C32.6119 23.252 31.3819 22.934 30.3859 22.298C29.3899 21.65 28.6459 20.786 28.1539 19.706C27.6619 18.626 27.4159 17.432 27.4159 16.124C27.4159 14.816 27.6619 13.628 28.1539 12.56C28.6459 11.48 29.3899 10.622 30.3859 9.986C31.3819 9.338 32.6119 9.014 34.0759 9.014C35.7319 9.014 37.0699 9.428 38.0899 10.256C39.1099 11.084 39.7159 12.188 39.9079 13.568H37.0819C36.9619 12.848 36.6259 12.296 36.0739 11.912C35.5219 11.528 34.8319 11.336 34.0039 11.336C32.7679 11.336 31.8079 11.774 31.1239 12.65C30.4519 13.514 30.1159 14.672 30.1159 16.124C30.1159 17.588 30.4519 18.758 31.1239 19.634C31.8079 20.498 32.7679 20.93 34.0039 20.93C34.8439 20.93 35.5339 20.732 36.0739 20.336C36.6139 19.928 36.9499 19.328 37.0819 18.536H39.9079C39.7159 19.988 39.1099 21.14 38.0899 21.992C37.0819 22.832 35.7439 23.252 34.0759 23.252ZM43.5148 23C42.7468 23 42.1648 22.826 41.7688 22.478C41.3728 22.118 41.1748 21.554 41.1748 20.786V9.266H43.6048V20.066C43.6048 20.402 43.6648 20.642 43.7848 20.786C43.9168 20.918 44.1328 20.984 44.4328 20.984H45.0808V23H43.5148ZM46.2424 23V12.902H48.6724V23H46.2424ZM47.4664 11.786C47.0464 11.786 46.6924 11.66 46.4044 11.408C46.1164 11.156 45.9724 10.82 45.9724 10.4C45.9724 10.004 46.1164 9.674 46.4044 9.41C46.6924 9.146 47.0464 9.014 47.4664 9.014C47.8744 9.014 48.2224 9.146 48.5104 9.41C48.8104 9.674 48.9604 10.004 48.9604 10.4C48.9604 10.808 48.8164 11.144 48.5284 11.408C48.2404 11.66 47.8864 11.786 47.4664 11.786ZM55.217 23.198C54.197 23.198 53.297 22.976 52.517 22.532C51.737 22.088 51.131 21.476 50.699 20.696C50.279 19.904 50.069 19.01 50.069 18.014C50.069 17.09 50.255 16.226 50.627 15.422C51.011 14.606 51.581 13.946 52.337 13.442C53.105 12.938 54.041 12.686 55.145 12.686C56.057 12.686 56.897 12.878 57.665 13.262C58.433 13.634 59.051 14.216 59.519 15.008C59.987 15.788 60.221 16.76 60.221 17.924V18.446H53.813C53.741 18.446 53.543 18.446 53.219 18.446C52.895 18.446 52.637 18.428 52.445 18.392L52.373 18.662C52.469 18.686 52.541 18.734 52.589 18.806C52.649 18.878 52.697 18.98 52.733 19.112C52.829 19.364 52.907 19.538 52.967 19.634C53.207 20.102 53.525 20.468 53.921 20.732C54.329 20.984 54.791 21.11 55.307 21.11C55.859 21.11 56.333 20.972 56.729 20.696C57.125 20.408 57.407 20.042 57.575 19.598H60.059C59.735 20.666 59.165 21.536 58.349 22.208C57.533 22.868 56.489 23.198 55.217 23.198ZM52.661 16.898C52.841 16.79 53.003 16.718 53.147 16.682C53.291 16.646 53.453 16.628 53.633 16.628H56.765C56.957 16.628 57.125 16.646 57.269 16.682C57.425 16.718 57.599 16.79 57.791 16.898L57.935 16.646C57.851 16.598 57.791 16.556 57.755 16.52C57.719 16.472 57.689 16.424 57.665 16.376C57.653 16.328 57.647 16.298 57.647 16.286C57.599 16.082 57.503 15.884 57.359 15.692C57.131 15.344 56.831 15.08 56.459 14.9C56.087 14.708 55.673 14.612 55.217 14.612C54.761 14.612 54.347 14.702 53.975 14.882C53.615 15.062 53.321 15.332 53.093 15.692C52.937 15.884 52.835 16.082 52.787 16.286C52.787 16.298 52.775 16.334 52.751 16.394C52.727 16.442 52.697 16.49 52.661 16.538C52.625 16.574 52.571 16.61 52.499 16.646L52.661 16.898ZM61.5967 12.902H64.0267V13.226C64.0267 13.418 64.0087 13.574 63.9727 13.694C63.9367 13.814 63.8647 13.934 63.7567 14.054L64.0087 14.234C64.3927 13.67 64.8007 13.274 65.2327 13.046C65.6767 12.806 66.1927 12.686 66.7807 12.686C68.3407 12.686 69.3907 13.25 69.9307 14.378C70.1107 14.774 70.2247 15.176 70.2727 15.584C70.3207 15.992 70.3447 16.526 70.3447 17.186V23H67.9327V17.15C67.9327 16.178 67.7647 15.506 67.4287 15.134C67.1407 14.834 66.7147 14.684 66.1507 14.684C65.4787 14.684 64.9687 14.888 64.6207 15.296C64.4167 15.536 64.2667 15.86 64.1707 16.268C64.0747 16.664 64.0267 17.192 64.0267 17.852V23H61.5967V12.902ZM75.0874 23C73.5154 23 72.7294 22.262 72.7294 20.786V14.846H71.2354V12.902H72.7294V9.266H75.1594V12.902H77.1034V14.846H75.1594V20.048C75.1594 20.36 75.2074 20.594 75.3034 20.75C75.4114 20.906 75.6394 20.984 75.9874 20.984H77.0854V23H75.0874ZM82.9524 9.266H86.9484C89.2644 9.266 91.0404 9.86 92.2764 11.048C93.5124 12.236 94.1304 13.934 94.1304 16.142C94.1304 18.338 93.5064 20.03 92.2584 21.218C91.0224 22.406 89.2524 23 86.9484 23H82.9524V9.266ZM86.9124 20.678C88.3764 20.678 89.5104 20.33 90.3144 19.634C91.1304 18.926 91.5384 17.762 91.5384 16.142C91.5384 14.606 91.1304 13.466 90.3144 12.722C89.4984 11.966 88.3704 11.588 86.9304 11.588H85.5444V20.678H86.9124ZM95.5221 23V12.902H97.9521V23H95.5221ZM96.7461 11.786C96.3261 11.786 95.9721 11.66 95.6841 11.408C95.3961 11.156 95.2521 10.82 95.2521 10.4C95.2521 10.004 95.3961 9.674 95.6841 9.41C95.9721 9.146 96.3261 9.014 96.7461 9.014C97.1541 9.014 97.5021 9.146 97.7901 9.41C98.0901 9.674 98.2401 10.004 98.2401 10.4C98.2401 10.808 98.0961 11.144 97.8081 11.408C97.5201 11.66 97.1661 11.786 96.7461 11.786ZM98.8807 12.902H101.473L103.129 17.96C103.237 18.308 103.309 18.62 103.345 18.896C103.393 19.172 103.429 19.49 103.453 19.85H103.669C103.669 19.778 103.681 19.622 103.705 19.382C103.729 19.13 103.765 18.89 103.813 18.662C103.861 18.422 103.921 18.188 103.993 17.96L105.685 12.902H108.277L104.533 23H102.607L98.8807 12.902ZM113.694 23.198C112.674 23.198 111.774 22.976 110.994 22.532C110.214 22.088 109.608 21.476 109.176 20.696C108.756 19.904 108.546 19.01 108.546 18.014C108.546 17.09 108.732 16.226 109.104 15.422C109.488 14.606 110.058 13.946 110.814 13.442C111.582 12.938 112.518 12.686 113.622 12.686C114.534 12.686 115.374 12.878 116.142 13.262C116.91 13.634 117.528 14.216 117.996 15.008C118.464 15.788 118.698 16.76 118.698 17.924V18.446H112.29C112.218 18.446 112.02 18.446 111.696 18.446C111.372 18.446 111.114 18.428 110.922 18.392L110.85 18.662C110.946 18.686 111.018 18.734 111.066 18.806C111.126 18.878 111.174 18.98 111.21 19.112C111.306 19.364 111.384 19.538 111.444 19.634C111.684 20.102 112.002 20.468 112.398 20.732C112.806 20.984 113.268 21.11 113.784 21.11C114.336 21.11 114.81 20.972 115.206 20.696C115.602 20.408 115.884 20.042 116.052 19.598H118.536C118.212 20.666 117.642 21.536 116.826 22.208C116.01 22.868 114.966 23.198 113.694 23.198ZM111.138 16.898C111.318 16.79 111.48 16.718 111.624 16.682C111.768 16.646 111.93 16.628 112.11 16.628H115.242C115.434 16.628 115.602 16.646 115.746 16.682C115.902 16.718 116.076 16.79 116.268 16.898L116.412 16.646C116.328 16.598 116.268 16.556 116.232 16.52C116.196 16.472 116.166 16.424 116.142 16.376C116.13 16.328 116.124 16.298 116.124 16.286C116.076 16.082 115.98 15.884 115.836 15.692C115.608 15.344 115.308 15.08 114.936 14.9C114.564 14.708 114.15 14.612 113.694 14.612C113.238 14.612 112.824 14.702 112.452 14.882C112.092 15.062 111.798 15.332 111.57 15.692C111.414 15.884 111.312 16.082 111.264 16.286C111.264 16.298 111.252 16.334 111.228 16.394C111.204 16.442 111.174 16.49 111.138 16.538C111.102 16.574 111.048 16.61 110.976 16.646L111.138 16.898ZM120.074 12.902H122.504V13.226C122.504 13.418 122.486 13.574 122.45 13.694C122.414 13.814 122.342 13.934 122.234 14.054L122.486 14.234C122.858 13.682 123.272 13.286 123.728 13.046C124.184 12.806 124.736 12.686 125.384 12.686H125.672V15.026H125.114C124.346 15.026 123.746 15.23 123.314 15.638C123.038 15.914 122.834 16.268 122.702 16.7C122.57 17.12 122.504 17.66 122.504 18.32V23H120.074V12.902ZM131.079 23.198C129.831 23.198 128.751 22.898 127.839 22.298C126.927 21.698 126.393 20.798 126.237 19.598H128.631C128.787 20.138 129.075 20.558 129.495 20.858C129.915 21.146 130.437 21.29 131.061 21.29C131.589 21.29 132.015 21.188 132.339 20.984C132.675 20.78 132.843 20.492 132.843 20.12C132.843 19.712 132.645 19.418 132.249 19.238C131.865 19.058 131.265 18.89 130.449 18.734C129.669 18.578 129.021 18.41 128.505 18.23C127.989 18.05 127.551 17.762 127.191 17.366C126.831 16.958 126.651 16.406 126.651 15.71C126.651 14.714 127.017 13.964 127.749 13.46C128.493 12.944 129.429 12.686 130.557 12.686C131.745 12.686 132.729 12.986 133.509 13.586C134.301 14.186 134.787 15.032 134.967 16.124H132.681C132.549 15.596 132.291 15.212 131.907 14.972C131.523 14.72 131.067 14.594 130.539 14.594C130.059 14.594 129.675 14.69 129.387 14.882C129.111 15.062 128.973 15.308 128.973 15.62C128.973 15.992 129.159 16.256 129.531 16.412C129.903 16.568 130.491 16.724 131.295 16.88C132.123 17.036 132.795 17.204 133.311 17.384C133.839 17.552 134.289 17.84 134.661 18.248C135.045 18.656 135.237 19.22 135.237 19.94C135.237 20.936 134.865 21.728 134.121 22.316C133.389 22.904 132.375 23.198 131.079 23.198ZM136.676 23V12.902H139.106V23H136.676ZM137.9 11.786C137.48 11.786 137.126 11.66 136.838 11.408C136.55 11.156 136.406 10.82 136.406 10.4C136.406 10.004 136.55 9.674 136.838 9.41C137.126 9.146 137.48 9.014 137.9 9.014C138.308 9.014 138.656 9.146 138.944 9.41C139.244 9.674 139.394 10.004 139.394 10.4C139.394 10.808 139.25 11.144 138.962 11.408C138.674 11.66 138.32 11.786 137.9 11.786ZM144.085 23C142.513 23 141.727 22.262 141.727 20.786V14.846H140.233V12.902H141.727V9.266H144.157V12.902H146.101V14.846H144.157V20.048C144.157 20.36 144.205 20.594 144.301 20.75C144.409 20.906 144.637 20.984 144.985 20.984H146.083V23H144.085ZM147.57 24.584H148.668C149.028 24.584 149.298 24.53 149.478 24.422C149.67 24.326 149.832 24.104 149.964 23.756L150.234 23.036L146.508 12.902H149.136L151.098 19.04C151.254 19.496 151.338 19.916 151.35 20.3H151.584C151.596 19.988 151.668 19.568 151.8 19.04L153.618 12.902H156.228L152.304 24.188C151.992 25.088 151.608 25.718 151.152 26.078C150.708 26.45 150.072 26.636 149.244 26.636H147.57V24.584Z" fill="#C8C8C8"/>
</svg>
