<svg width="131" height="40" viewBox="0 0 131 40" fill="none" xmlns="http://www.w3.org/2000/svg">
<g clip-path="url(#clip0_377_6683)">
<path d="M12.8053 29.0016V0.212891L0.241943 21.4523L12.8053 29.0016Z" fill="#C8C8C8" fill-opacity="0.4"/>
<path d="M12.8054 0.212891L25.3688 21.4523L12.8054 28.9453V0.212891Z" fill="#C8C8C8" fill-opacity="0.8"/>
<path d="M0.241943 23.0859L12.8053 30.5789V40.269" fill="#C8C8C8" fill-opacity="0.4"/>
<path d="M25.3688 23.0859L12.8054 30.5789V40.269" fill="#C8C8C8" fill-opacity="0.6"/>
<path d="M12.8053 13.96L0.241943 21.4529L12.8053 28.9459V13.96Z" fill="#C8C8C8" fill-opacity="0.4"/>
<path d="M12.8054 13.96L25.3688 21.4529L12.8054 28.9459V13.96Z" fill="#C8C8C8" fill-opacity="0.6"/>
<path d="M33.8739 14.9779C33.8739 14.2455 34.0429 13.5131 34.3809 12.8371C34.719 12.2173 35.1697 11.7103 35.7894 11.3723C36.4091 11.0342 37.1415 10.8652 37.8176 10.8652C38.4936 10.8652 39.226 11.0342 39.8457 11.3723C40.4091 11.7103 40.9162 12.2173 41.1978 12.8371C41.5359 13.5131 41.7049 14.2455 41.7049 14.9779V15.5976H35.9584C35.9584 16.0483 36.1838 16.499 36.5218 16.7807C36.9162 17.1188 37.3669 17.2314 37.8739 17.2314C38.2683 17.2314 38.6063 17.1751 38.9443 16.9497C39.3387 16.7244 39.7331 16.4427 40.0147 16.0483L41.3105 17.4004C40.8598 17.9075 40.3528 18.3019 39.7894 18.5835C39.1697 18.8652 38.55 18.9779 37.8739 18.9779C37.1415 18.9779 36.4091 18.8089 35.7894 18.4709C35.1697 18.1328 34.719 17.6258 34.3809 17.0624C33.9866 16.499 33.8739 15.7666 33.8739 14.9779ZM39.564 14.1328C39.5077 13.7385 39.3387 13.3441 39.0007 13.0624C38.2683 12.499 37.3105 12.499 36.5781 13.0624C36.2401 13.3441 36.0711 13.7385 35.9584 14.1328H39.564Z" fill="#C8C8C8"/>
<path d="M48.1836 13.0065V16.1051C48.1836 16.3304 48.2399 16.4994 48.3526 16.6684C48.5216 16.7811 48.747 16.8374 48.9723 16.8374H50.7188V18.8656H48.747C48.0146 18.922 47.3385 18.6966 46.7751 18.2459C46.2681 17.7952 46.0427 17.1755 46.0991 16.4994V12.9501H44.1836V11.091H46.0991V9.11914H48.1836V11.091H51.2258V12.9501L48.1836 13.0065Z" fill="#C8C8C8"/>
<path d="M54.0429 8.21777H56.1274V11.8234H56.1838C57.1415 10.8093 58.719 10.584 59.9021 11.3164C60.3528 11.5981 60.6908 11.9924 60.9161 12.4431C61.1415 13.0065 61.3105 13.5699 61.2542 14.1333V18.8093H59.1697V14.415C59.1697 13.9643 59.057 13.5699 58.7753 13.2319C58.4936 12.9502 58.0992 12.7812 57.7049 12.7812C57.2542 12.7812 56.8598 12.8938 56.5218 13.2319C56.2401 13.5699 56.0711 13.9643 56.0711 14.415V18.8093H53.9866L54.0429 8.21777Z" fill="#C8C8C8"/>
<path d="M63.5638 14.9779C63.5638 14.2455 63.7329 13.5131 64.0709 12.8371C64.4089 12.2173 64.8596 11.7103 65.4793 11.3723C66.0991 11.0342 66.8314 10.8652 67.5075 10.8652C68.1836 10.8652 68.916 11.0342 69.5357 11.3723C70.0991 11.7103 70.6061 12.2173 70.8878 12.8371C71.2258 13.5131 71.3948 14.2455 71.3948 14.9779V15.5976H65.6483C65.6483 16.0483 65.8737 16.499 66.2117 16.7807C66.6061 17.1188 67.0568 17.2314 67.5638 17.2314C67.9582 17.2314 68.2962 17.1751 68.6343 16.9497C69.0286 16.7244 69.423 16.4427 69.7047 16.0483L71.0005 17.4004C70.5498 17.9075 70.0427 18.3019 69.4793 18.5835C68.8596 18.8652 68.2399 19.0342 67.5638 18.9779C66.8314 18.9779 66.0991 18.8089 65.4793 18.4709C64.8596 18.1328 64.4089 17.6258 64.0709 17.0624C63.7329 16.499 63.5638 15.7666 63.5638 14.9779ZM69.254 14.1328C69.1976 13.7385 69.0286 13.3441 68.6906 13.0624C67.9582 12.499 67.0005 12.499 66.2681 13.0624C65.93 13.3441 65.761 13.7385 65.6483 14.1328H69.254Z" fill="#C8C8C8"/>
<path d="M74.3807 11.1472H76.3526V11.8796H76.4089C76.9723 11.2599 77.8174 10.9219 78.6624 10.9219C79.2821 10.9219 79.9019 11.0909 80.4089 11.4853C80.9159 11.8796 81.254 12.443 81.423 13.1191L79.4512 13.7388C79.2821 13.1191 78.7188 12.7247 78.0427 12.781C77.592 12.7247 77.1413 12.8937 76.8596 13.2317C76.5779 13.5698 76.4089 14.0205 76.4652 14.4712V18.8092H74.3807V11.1472Z" fill="#C8C8C8"/>
<path d="M83.3952 14.9779C83.3952 14.2455 83.5642 13.5131 83.9023 12.8371C84.2403 12.2173 84.691 11.7103 85.3107 11.3723C85.9304 11.0342 86.6628 10.8652 87.3389 10.8652C88.0149 10.8652 88.7473 11.0342 89.367 11.3723C89.9304 11.7103 90.4375 12.2173 90.7192 12.8371C91.0572 13.5131 91.2262 14.2455 91.2262 14.9779V15.5976H85.4797C85.4797 16.0483 85.7051 16.499 86.0431 16.7807C86.4375 17.1188 86.8882 17.2314 87.3952 17.2314C87.7896 17.2314 88.1276 17.1751 88.4656 16.9497C88.86 16.7244 89.2544 16.4427 89.5361 16.0483L90.8318 17.4004C90.3811 17.9075 89.8741 18.3019 89.3107 18.5835C88.691 18.8652 88.0713 19.0342 87.3952 18.9779C86.6628 18.9779 85.9304 18.8089 85.3107 18.4709C84.691 18.1328 84.2403 17.6258 83.9023 17.0624C83.5079 16.499 83.3389 15.7666 83.3952 14.9779ZM89.0853 14.1328C89.029 13.7385 88.86 13.3441 88.522 13.0624C87.7896 12.499 86.8318 12.499 86.0994 13.0624C85.7614 13.3441 85.5924 13.7385 85.4797 14.1328H89.0853Z" fill="#C8C8C8"/>
<path d="M93.7049 16.2179V11.1475H95.7894V15.7672C95.6767 16.4432 96.1274 17.063 96.8035 17.1756C96.9161 17.1756 97.0288 17.1756 97.1415 17.1756C97.5358 17.1756 97.8739 17.063 98.1556 16.7813C98.4373 16.4996 98.5499 16.1052 98.5499 15.7672V11.1475H100.634V18.8658H98.6626V18.1897H98.6063C98.3809 18.4714 98.0429 18.6968 97.7049 18.8658C96.5781 19.3165 95.3387 19.1475 94.4373 18.3587C93.9302 17.739 93.6485 17.0066 93.7049 16.2179Z" fill="#C8C8C8"/>
<path d="M102.944 11.1478H104.803V11.8238H104.86C105.029 11.5985 105.254 11.3731 105.48 11.2041C105.761 11.0351 106.043 10.9788 106.325 10.9788C106.944 10.9788 107.508 11.3168 107.789 11.8238H107.846C108.184 11.2604 108.803 10.9224 109.423 10.9788C109.93 10.9788 110.437 11.2041 110.775 11.5985C111.113 12.0492 111.339 12.6126 111.282 13.1759V18.8661H109.367V13.514C109.367 13.345 109.311 13.1196 109.198 13.0069C109.085 12.8942 108.86 12.8379 108.691 12.8379C108.522 12.8379 108.353 12.8942 108.184 13.0633C108.071 13.2323 108.015 13.4013 108.015 13.5703V18.8661H106.212V13.514C106.212 13.345 106.156 13.1759 106.043 13.0069C105.93 12.8942 105.761 12.8379 105.592 12.8379C105.423 12.8379 105.198 12.8942 105.085 13.0069C104.973 13.1759 104.86 13.345 104.916 13.514V18.8097H103.001L102.944 11.1478Z" fill="#C8C8C8"/>
<path d="M36.1838 29.2317H34.1556V27.3726H36.1838V26.2458C36.1275 25.6261 36.4092 25.0627 36.8599 24.612C37.3669 24.2176 38.043 23.9923 38.719 24.0486H40.9725V25.9078H39.0007C38.8317 25.9078 38.6627 25.9641 38.55 26.0768C38.4373 26.1895 38.381 26.3585 38.381 26.5275V27.4289H41.4232V29.288H38.3247V34.3021H36.1838V29.2317Z" fill="#C8C8C8"/>
<path d="M43.7891 30.3588C43.7891 29.6264 43.9581 28.894 44.2962 28.2179C44.6342 27.5982 45.0849 27.0912 45.7046 26.7531C47.0004 26.0771 48.5215 26.0771 49.8173 26.7531C50.3807 27.0912 50.8877 27.5982 51.2257 28.2179C51.9018 29.57 51.9018 31.1475 51.2257 32.4433C50.8877 33.063 50.437 33.57 49.8173 33.9081C48.5215 34.5841 47.0004 34.5841 45.7046 33.9081C45.0849 33.57 44.6342 33.063 44.2962 32.4433C43.9018 31.8236 43.7328 31.0912 43.7891 30.3588ZM49.5356 30.3588C49.5919 29.7954 49.4229 29.232 49.0286 28.7813C48.6905 28.3869 48.1835 28.1616 47.6765 28.2179C47.1694 28.2179 46.6624 28.3869 46.3243 28.7813C45.9863 29.232 45.8173 29.7954 45.8173 30.3588C45.761 30.9221 45.93 31.4855 46.3243 31.9362C47.0567 32.6686 48.2398 32.725 49.0286 31.9926L49.0849 31.9362C49.4229 31.4855 49.5919 30.9221 49.5356 30.3588Z" fill="#C8C8C8"/>
<path d="M54.0994 31.5978V26.5273H56.1839V31.1471C56.0712 31.8231 56.5783 32.4428 57.2543 32.5555C57.367 32.5555 57.4797 32.5555 57.5924 32.5555C57.9867 32.5555 58.3248 32.4428 58.6065 32.1611C58.8881 31.8795 59.0008 31.4851 59.0008 31.1471V26.5273H61.0853V34.2457H59.1135V33.5696H59.0572C58.8318 33.8513 58.4938 34.0766 58.1557 34.2457C56.86 34.978 55.1698 34.471 54.4374 33.1752C54.1557 32.6682 54.0431 32.1048 54.0994 31.5978Z" fill="#C8C8C8"/>
<path d="M63.9584 26.5271H66.0429V27.2595H66.0992C66.3809 26.9778 66.7189 26.7525 67.1133 26.5271C67.5077 26.3581 67.902 26.3018 68.3527 26.3018C68.8598 26.3018 69.3105 26.4144 69.7612 26.6398C70.2119 26.9215 70.6063 27.2595 70.8316 27.7102C71.1133 28.2736 71.2823 28.8933 71.226 29.513V34.1891H69.1415V29.7947C69.1415 29.344 69.0288 28.9496 68.7471 28.6116C68.4654 28.2736 68.071 28.1609 67.6767 28.1609C67.226 28.1609 66.8316 28.2736 66.4936 28.6116C66.2119 28.9496 66.0429 29.344 66.0429 29.7947V34.1891H63.9584V26.5271Z" fill="#C8C8C8"/>
<path d="M73.3104 30.3582C73.3104 29.6258 73.4794 28.8934 73.7611 28.2737C74.0428 27.654 74.4935 27.147 75.0006 26.8089C75.5639 26.4709 76.1837 26.3019 76.8597 26.3019C77.5921 26.2455 78.3245 26.5272 78.8879 26.9779H78.9442V23.5977H81.0287V34.2455H79.1132V33.5695H79.0569C78.4935 34.1892 77.6485 34.4709 76.8034 34.4709C76.1837 34.4709 75.5076 34.3019 75.0006 33.9639C74.4372 33.6258 74.0428 33.1188 73.7611 32.5554C73.4794 31.823 73.3104 31.0906 73.3104 30.3582ZM78.9442 30.8653V29.8512C78.9442 29.5695 78.8879 29.2878 78.7189 29.0624C78.5499 28.7808 78.3245 28.6117 78.0428 28.4427C77.7611 28.2737 77.4231 28.2174 77.1414 28.2174C76.6344 28.2174 76.1837 28.4427 75.8456 28.7808C75.2259 29.7385 75.2259 30.9779 75.8456 31.9357C76.1273 32.3301 76.6344 32.5554 77.0851 32.5554C77.5921 32.5554 78.0428 32.3864 78.3808 32.0484C78.7752 31.7667 78.9442 31.316 78.9442 30.8653Z" fill="#C8C8C8"/>
<path d="M83.8457 32.1615C83.7894 31.5418 84.0711 30.9221 84.5781 30.4713C85.3105 29.9643 86.1556 29.6826 87.057 29.5699C87.5077 29.5136 87.9021 29.4009 88.2964 29.2319C88.4654 29.1192 88.6345 28.9502 88.6345 28.7249C88.6345 28.4995 88.5218 28.2742 88.2964 28.1615C88.0147 27.9925 87.7331 27.9361 87.395 27.9361C87.0007 27.9361 86.6063 28.0488 86.3246 28.3305C86.0429 28.6122 85.8176 28.9502 85.7612 29.3446L83.8457 28.8939C83.9584 28.3868 84.1838 27.8798 84.5218 27.4854C84.8598 27.0911 85.3105 26.753 85.8176 26.5277C86.3246 26.3023 86.9443 26.1897 87.5077 26.1897C88.3528 26.1333 89.2542 26.415 89.8739 27.0347C90.4936 27.5981 90.7753 28.4432 90.7753 29.2319V34.1333H88.9162V33.3446H88.8598C88.6345 33.6826 88.2964 33.9643 87.9021 34.1333C87.4514 34.3023 87.0007 34.415 86.55 34.415C86.0993 34.415 85.5922 34.3023 85.1978 34.1333C84.8035 33.9643 84.4654 33.6826 84.2401 33.3446C83.9584 32.9502 83.8457 32.5559 83.8457 32.1615ZM88.6908 31.3728V30.4713H88.6345C88.5218 30.6404 88.3528 30.753 88.1838 30.8094C87.8457 30.9221 87.564 31.0347 87.226 31.0911C86.8316 31.1474 86.4373 31.2601 86.0993 31.4854C85.9302 31.5981 85.7612 31.8235 85.8176 32.0488C85.8176 32.2742 85.9302 32.4432 86.0993 32.5559C86.3246 32.6685 86.6063 32.7249 86.888 32.7249C87.1697 32.7249 87.5077 32.6685 87.7894 32.5559C88.0711 32.4432 88.2964 32.2742 88.4654 32.0488C88.5781 31.8235 88.6908 31.5981 88.6908 31.3728Z" fill="#C8C8C8"/>
<path d="M97.705 28.3873V31.4859C97.705 31.7113 97.7613 31.8803 97.874 32.0493C98.043 32.162 98.2683 32.2183 98.4937 32.2183H100.24V34.2465H98.2683C97.5359 34.3028 96.8599 34.0775 96.2965 33.6268C95.7895 33.1761 95.5641 32.5563 95.6204 31.8803V28.331H93.705V26.4718H95.6204V24.5H97.705V26.4718H100.747V28.331H97.705V28.3873Z" fill="#C8C8C8"/>
<path d="M110.888 32.3302V34.2457H103.283V32.3302H106.043V28.4429H103.452V26.5274H108.128V32.3302H110.888ZM106.043 23.2598H108.184V25.2879H106.043V23.2598Z" fill="#C8C8C8"/>
<path d="M113.085 30.3588C113.085 29.6264 113.254 28.894 113.592 28.2179C113.93 27.5982 114.381 27.0912 115.001 26.7531C116.296 26.0771 117.818 26.0771 119.113 26.7531C119.677 27.0912 120.184 27.5982 120.522 28.2179C121.198 29.57 121.198 31.1475 120.522 32.4433C120.184 33.063 119.733 33.57 119.113 33.9081C117.818 34.5841 116.296 34.5841 115.001 33.9081C114.437 33.57 113.93 33.063 113.592 32.4433C113.254 31.8236 113.085 31.0912 113.085 30.3588ZM118.888 30.3588C118.944 29.7954 118.775 29.232 118.381 28.7813C118.043 28.3869 117.536 28.1616 117.029 28.2179C116.522 28.2179 116.015 28.3869 115.677 28.7813C115.339 29.232 115.17 29.7954 115.17 30.3588C115.113 30.9221 115.282 31.4855 115.677 31.9362C116.409 32.6686 117.592 32.725 118.381 31.9926L118.437 31.9362C118.719 31.4855 118.888 30.9221 118.888 30.3588Z" fill="#C8C8C8"/>
<path d="M123.339 26.5271H125.423V27.2595H125.48C125.761 26.9778 126.099 26.7525 126.494 26.5271C126.888 26.3581 127.282 26.3018 127.733 26.3018C128.24 26.3018 128.691 26.4144 129.142 26.6398C129.592 26.9215 129.987 27.2595 130.212 27.7102C130.494 28.2736 130.663 28.8933 130.606 29.513V34.1891H128.522V29.7947C128.522 29.344 128.409 28.9496 128.127 28.6116C127.846 28.2736 127.451 28.1609 127.057 28.1609C126.606 28.1609 126.212 28.2736 125.874 28.6116C125.592 28.9496 125.423 29.344 125.423 29.7947V34.1891H123.339V26.5271Z" fill="#C8C8C8"/>
</g>
<defs>
<clipPath id="clip0_377_6683">
<rect width="130.141" height="40" fill="white" transform="translate(0.5)"/>
</clipPath>
</defs>
</svg>
