<svg width="104" height="32" viewBox="0 0 104 32" fill="none" xmlns="http://www.w3.org/2000/svg">
<g clip-path="url(#clip0_377_6733)">
<path d="M32.4975 7.3205C32.4831 7.06678 32.5395 6.78486 32.5819 6.51702C32.6523 6.13642 32.7371 5.74174 32.5959 5.4457C32.5115 5.24838 32.2435 5.06514 31.9615 4.88186C31.6798 4.68454 31.3415 4.4731 31.1301 4.16298C30.9327 3.89514 30.8481 3.54274 30.7635 3.21854C30.679 2.86614 30.5944 2.5419 30.3971 2.34458C30.1997 2.14722 29.8755 2.06266 29.5231 1.97806C29.1989 1.8935 28.8465 1.8089 28.5787 1.61158C28.2685 1.38602 28.0571 1.06182 27.8598 0.7799C27.6765 0.49798 27.4933 0.23014 27.2959 0.14558C26.9858 0.00462008 26.5911 0.0891798 26.2246 0.15966C25.9568 0.21606 25.6749 0.27246 25.4211 0.24426C25.2097 0.23014 24.9983 0.18786 24.8009 0.15966C24.5613 0.11738 24.3357 0.0891798 24.1384 0.0891798C23.9551 0.0891798 23.786 0.11738 23.645 0.20198C23.4618 0.31474 23.3349 0.58254 23.2221 0.8081L21.7139 3.86694C22.9966 4.31802 24.2793 4.75502 25.5903 5.23426C26.4079 5.58666 27.0845 6.2351 27.4369 7.05266C27.747 7.84206 28.0007 8.57506 28.2967 9.33626L28.9029 11.0278L31.9335 9.53358C32.1871 9.42082 32.4267 9.27986 32.5539 9.06842C32.7227 8.80058 32.6523 8.39182 32.5819 7.92662C32.5395 7.7293 32.5115 7.51786 32.4975 7.3205Z" fill="#C8C8C8"/>
<path d="M13.6925 24.871C13.5093 24.3213 13.3542 23.9125 13.171 23.5178C12.7622 22.6439 12.2265 21.8404 11.5922 21.1074C10.9297 20.3744 10.1403 19.7682 9.28044 19.3453C8.89984 19.1621 8.44876 19.0071 7.899 18.852C7.84264 18.8379 7.78624 18.8379 7.71576 18.8379C7.58892 18.8379 7.44796 18.8661 7.307 18.9084C7.10964 18.9647 6.71496 19.1903 6.50352 19.3313C4.7838 20.4449 3.71248 21.0932 1.93636 22.0518C1.93636 22.0518 1.92228 22.0659 1.9082 22.0659C1.96456 22.0659 2.00684 22.08 2.06324 22.08C2.27468 22.1082 2.47204 22.1223 2.66936 22.1223C2.83852 22.1223 3.04996 22.0659 3.2614 22.0095C3.52924 21.9391 3.83936 21.8545 4.19176 21.8545C4.44548 21.8545 4.671 21.8967 4.89656 21.9813C5.34764 22.1928 5.58728 22.5311 5.7846 22.7848L5.85508 22.8835C6.02424 23.1231 6.20748 23.3909 6.39072 23.5037C6.5458 23.6024 6.82772 23.6729 7.12372 23.7433L7.20832 23.7715C7.56072 23.8702 7.9836 23.983 8.3642 24.3354C8.73068 24.716 8.84344 25.1529 8.94212 25.5054L8.97032 25.604C9.0408 25.8859 9.11128 26.1679 9.20996 26.3229C9.33684 26.5062 9.59056 26.6894 9.8302 26.8586L9.92884 26.929C10.1967 27.1123 10.5209 27.3519 10.7323 27.7889C10.972 28.4373 10.831 28.9871 10.7182 29.4382C10.6618 29.6496 10.6055 29.8611 10.6055 30.0302C10.6055 30.2276 10.6337 30.4249 10.6478 30.6223C11.6627 28.8039 12.7058 26.9713 13.0018 26.478C13.1992 26.1538 13.5516 25.6463 13.6784 25.3362C13.7489 25.1953 13.7348 25.012 13.6925 24.871Z" fill="#C8C8C8"/>
<path d="M10.1545 32.0594C10.521 31.6647 9.99943 30.5229 9.99943 30.086C9.99943 29.6913 10.0558 29.3389 10.084 29.0147C10.1263 28.6905 10.1263 28.3803 9.99943 28.1548C9.88663 27.9575 9.61883 27.7742 9.33691 27.5909C9.05499 27.4077 8.71667 27.2104 8.46295 26.8721C8.19511 26.5055 8.13875 26.125 8.05415 25.8007C7.96959 25.4765 7.87091 25.1946 7.70175 25.0396C7.54671 24.8704 7.25067 24.7717 6.94055 24.6871C6.61635 24.5885 6.24987 24.5321 5.86927 24.2784C5.53095 24.0105 5.33359 23.6863 5.15035 23.4044C4.85435 22.9533 4.78387 22.8547 4.58651 22.7419C4.29051 22.5727 3.95219 22.6009 3.72667 22.6573C3.45883 22.7137 3.12051 22.7701 2.72583 22.7701C2.23247 22.7701 1.03431 22.2344 0.681912 22.5869C0.329512 22.9393 0.836953 24.1233 0.851073 24.5603C0.851073 24.9691 0.808753 25.3356 0.766473 25.6316C0.710113 25.8571 0.681913 26.1955 0.851073 26.4915C0.963833 26.6888 1.07659 26.7593 1.51355 27.0553C1.79551 27.2385 2.13379 27.4359 2.38751 27.7742C2.65535 28.1407 2.71175 28.5213 2.79631 28.8455C2.88087 29.1697 2.97955 29.4517 3.14871 29.6067C3.30379 29.7759 3.59979 29.8745 3.90991 29.9591C4.23411 30.0578 4.60063 30.1141 4.98119 30.3679C5.31951 30.6357 5.51687 30.9599 5.70011 31.2419C5.88335 31.5238 6.05251 31.7916 6.26395 31.9044C6.48947 32.0312 6.79959 32.0312 7.12383 31.9889C7.44803 31.9607 7.80043 31.8762 8.19511 31.9044C8.77307 31.9185 9.80207 32.44 10.1545 32.0594Z" fill="#C8C8C8"/>
<path d="M29.5931 15.144C29.579 14.8762 29.3676 14.4674 29.2548 14.0868L27.6056 9.54785C27.3377 8.80077 27.0699 8.01137 26.8021 7.30657C26.5202 6.64405 25.9704 6.09433 25.3079 5.79829L20.8113 4.10677L18.5559 3.24689C18.1753 3.12005 17.7947 2.90861 17.4705 2.89449C17.1322 2.86629 16.7798 2.99317 16.5261 3.24689C14.2143 5.48817 11.9025 7.72945 9.66125 10.0271C8.53357 11.1689 7.40589 12.3248 6.30637 13.4948L5.86941 13.9599C5.86941 13.9599 7.25081 14.4815 7.73009 14.6789C8.70273 15.0595 9.66125 15.4541 10.6198 15.8629C11.5783 16.2717 12.5228 16.6946 13.4813 17.1598C14.4539 17.639 15.2997 18.4143 15.7226 19.3869C15.1305 18.6399 14.2002 18.1465 13.2558 17.78C12.2972 17.4135 11.2823 17.0752 10.2956 16.7792C9.29473 16.4831 8.30801 16.173 7.32129 15.8488C6.82793 15.6938 6.33457 15.5246 5.84121 15.3555C5.51701 15.2427 5.26325 15.2991 5.03773 15.4964C4.82629 15.6938 4.71353 15.9616 4.76989 16.2435C4.78401 16.2717 4.78401 16.314 4.79809 16.3563L4.85449 16.5395L4.98133 16.906L5.23509 17.639C5.39013 18.1042 5.54517 18.5835 5.70025 19.0486C5.99625 18.8795 6.27817 18.7244 6.57421 18.5694C6.77153 18.4566 7.05345 18.3157 7.33541 18.2733C7.61733 18.2311 7.88513 18.217 8.18117 18.3297C8.64633 18.5271 9.11149 18.7244 9.56257 18.95C10.4647 19.4011 11.2964 19.979 12.0576 20.6556C12.8188 21.3322 13.4672 22.1498 13.9465 23.066C14.1861 23.5171 14.3835 24.0105 14.5526 24.4756C14.6654 24.7857 14.6654 25.11 14.5808 25.4342C14.5385 25.5751 14.4539 25.7584 14.3835 25.8571L14.2002 26.1813C13.9324 26.6183 13.6645 27.0552 13.3967 27.4781C14.0592 27.7459 14.7359 27.9856 15.4125 28.2393C15.7931 28.3661 16.1595 28.5635 16.5401 28.5917C16.9349 28.6199 17.3295 28.4648 17.6115 28.1829C19.8809 25.8993 22.094 23.5735 24.3071 21.2194C25.4066 20.0495 26.5343 18.8936 27.6479 17.7377L29.3394 16.018C29.4944 15.7643 29.6072 15.4541 29.5931 15.144ZM21.0368 22.3753L17.1745 26.5901L19.0351 19.3447L21.3469 18.5976L21.7134 15.3132L23.9688 14.7916L26.055 7.40525L27.7325 14.9608L21.0368 22.3753Z" fill="#C8C8C8"/>
<path d="M51.8788 26.2947C50.9204 26.2947 50.0464 26.1256 49.2852 25.7873C48.524 25.449 47.9176 24.9556 47.4668 24.3072C47.0156 23.6588 46.79 22.8694 46.79 21.9391C46.79 21.0087 47.0156 20.2334 47.4668 19.5991C47.9176 18.9648 48.538 18.4996 49.3272 18.1754C50.1168 17.8512 51.0188 17.6961 52.048 17.6961H55.7552V16.9349C55.7552 16.3006 55.558 15.779 55.1492 15.3703C54.7544 14.9615 54.106 14.75 53.232 14.75C52.372 14.75 51.7376 14.9474 51.3148 15.3421C50.892 15.7367 50.6244 16.2442 50.4972 16.8644L47.3256 15.7931C47.5372 15.1024 47.8896 14.4681 48.3828 13.8901C48.8624 13.3122 49.5108 12.8471 50.328 12.4946C51.1316 12.1422 52.1324 11.959 53.2884 11.959C55.0784 11.959 56.488 12.4101 57.5172 13.2981C58.5604 14.1862 59.0676 15.483 59.0676 17.1745V22.221C59.0676 22.7707 59.3216 23.0385 59.8288 23.0385H60.9144V25.8719H58.6168C57.94 25.8719 57.3904 25.7027 56.9532 25.3785C56.5164 25.0543 56.3048 24.6173 56.3048 24.0675V24.0394H55.7832C55.7128 24.2508 55.5436 24.5468 55.29 24.8992C55.0364 25.2516 54.6416 25.5617 54.092 25.8437C53.5704 26.1538 52.8232 26.2947 51.8788 26.2947ZM52.4708 23.5037C53.4292 23.5037 54.2188 23.2359 54.8388 22.7002C55.4452 22.1646 55.7552 21.4457 55.7552 20.5576V20.2898H52.2876C51.6532 20.2898 51.1456 20.4307 50.7792 20.6986C50.4128 20.9664 50.2296 21.347 50.2296 21.8404C50.2296 22.3337 50.4268 22.7284 50.8076 23.0385C51.188 23.3487 51.752 23.5037 52.4708 23.5037Z" fill="#C8C8C8"/>
<path d="M67.328 25.9146C66.44 25.9146 65.7068 25.6326 65.1572 25.0829C64.6076 24.5331 64.3256 23.786 64.3256 22.8557V15.2156H60.9424V12.3823H64.3256V8.18164H67.7652V12.3823H71.4724V15.2156H67.7652V22.2637C67.7652 22.8134 68.0188 23.0812 68.5264 23.0812H71.148V25.9146H67.328Z" fill="#C8C8C8"/>
<path d="M80.0992 26.2945C78.746 26.2945 77.562 26.0125 76.5328 25.4346C75.5036 24.8567 74.7004 24.0532 74.1364 23.0101C73.5584 21.9669 73.2764 20.7265 73.2764 19.3028V18.9786C73.2764 17.5549 73.5584 16.3285 74.1224 15.2854C74.6864 14.2423 75.4756 13.4247 76.5044 12.8609C77.5196 12.2829 78.7036 12.001 80.0568 12.001C81.382 12.001 82.5376 12.297 83.5244 12.8891C84.5112 13.4811 85.2724 14.2987 85.822 15.3418C86.372 16.3849 86.6396 17.5971 86.6396 18.9927V20.1627H76.7864C76.8288 21.093 77.1672 21.8401 77.8296 22.4321C78.478 23.0101 79.2816 23.3061 80.226 23.3061C81.1844 23.3061 81.9032 23.0947 82.3544 22.6717C82.8056 22.2489 83.158 21.7837 83.3976 21.2763L86.2168 22.7563C85.9632 23.2356 85.5964 23.7431 85.1172 24.2928C84.638 24.8426 83.9896 25.3218 83.186 25.7165C82.3544 26.0971 81.3256 26.2945 80.0992 26.2945ZM76.7864 17.5831H83.1156C83.0452 16.7937 82.7352 16.1735 82.1712 15.6942C81.6216 15.2149 80.8884 14.9894 80.0004 14.9894C79.07 14.9894 78.3372 15.229 77.7872 15.6942C77.2516 16.1735 76.9132 16.7937 76.7864 17.5831Z" fill="#C8C8C8"/>
<path d="M94.7875 26.2945C93.7163 26.2945 92.7015 26.0267 91.7711 25.491C90.8267 24.9553 90.0795 24.166 89.5155 23.1229C88.9519 22.0797 88.6699 20.8252 88.6699 19.3592V18.9222C88.6699 17.4421 88.9519 16.1876 89.5155 15.1585C90.0795 14.1154 90.8267 13.3401 91.7571 12.7904C92.6871 12.2547 93.7023 11.9869 94.7875 11.9869C95.6051 11.9869 96.2959 12.0856 96.8455 12.2689C97.3955 12.4662 97.8463 12.7058 98.1987 12.9877C98.5511 13.2838 98.8051 13.5939 98.9883 13.9181H99.4815V7.81445H102.921V25.9139H99.5379V24.2787H99.0447C98.7343 24.7862 98.2551 25.2514 97.6067 25.6743C96.9583 26.083 96.0279 26.2945 94.7875 26.2945ZM95.8167 23.292C96.8739 23.292 97.7619 22.9537 98.4667 22.263C99.1715 21.5864 99.5379 20.5855 99.5379 19.2746V19.0068C99.5379 17.6959 99.1855 16.695 98.4807 16.0184C97.7759 15.3418 96.8879 14.9894 95.8167 14.9894C94.7595 14.9894 93.8715 15.3277 93.1667 16.0184C92.4619 16.695 92.0951 17.6959 92.0951 19.0068V19.2746C92.0951 20.5855 92.4475 21.5864 93.1667 22.263C93.8855 22.9537 94.7595 23.292 95.8167 23.292Z" fill="#C8C8C8"/>
<path d="M44.0697 12.3105L40.9545 12.3669C39.0797 12.3669 37.5713 13.8893 37.5713 15.75V25.9133H41.0109V18.2168C41.0109 17.2583 40.9545 16.2011 41.5181 15.7359C42.0821 15.2707 43.1393 15.3835 44.0133 15.3835H45.7049V12.3246H44.0697V12.3105Z" fill="#C8C8C8"/>
</g>
<defs>
<clipPath id="clip0_377_6733">
<rect width="102.4" height="32" fill="white" transform="translate(0.713867)"/>
</clipPath>
</defs>
</svg>
