<svg width="42" height="39" viewBox="0 0 42 39" fill="none" xmlns="http://www.w3.org/2000/svg">
<g opacity="0.8" clip-path="url(#clip0_214_12764)">
<mask id="mask0_214_12764" style="mask-type:luminance" maskUnits="userSpaceOnUse" x="0" y="0" width="42" height="39">
<path d="M42 0.000976562H0V38.0536H42V0.000976562Z" fill="white"/>
</mask>
<g mask="url(#mask0_214_12764)">
<path d="M14.2272 38.0537C10.2194 38.0537 6.49846 36.3417 3.74913 33.2336C1.40183 30.579 0 27.1223 0 23.986C0 20.6934 1.17005 17.366 3.21027 14.8565C4.45431 13.3264 5.98513 12.1258 7.76083 11.2875C9.68516 10.379 11.8609 9.91821 14.2272 9.91821H34.8114V17.3916H28.2593V23.986C28.2593 30.7517 22.8942 38.0537 14.2272 38.0537ZM14.2272 17.3916C11.931 17.3916 10.1684 18.1274 8.98849 19.5788C8.02797 20.7597 7.4544 22.4073 7.4544 23.986C7.4544 26.2243 9.84492 30.5803 14.2272 30.5803C18.7142 30.5803 20.8049 26.6451 20.8049 23.986V17.3916H14.2272Z" fill="white"/>
<path d="M41.9999 0.000976562H37.0519V12.473H41.9999V0.000976562Z" fill="white"/>
</g>
</g>
<defs>
<clipPath id="clip0_214_12764">
<rect width="42" height="39" fill="white" transform="translate(0 0.000976562)"/>
</clipPath>
</defs>
</svg>
